<svg xmlns="http://www.w3.org/2000/svg" xml:space="preserve" width="1500" height="1500" data-id="lg_0fHfWZXNpH5LxzktEV" data-version="1"><path fill="#d8ff75" stroke="transparent" d="M0 0h1500v1500H0z"/><g data-padding="20"><g transform="translate(-573.792 -561.379)scale(1.68049)"><path fill="#1e1e1e" d="M839.332 637.205q-19.79-2.97-42.3-2.97t-43.78 2.97q13.36 22.76 31.66 37.1 18.3 14.35 46.25 28.45t45.51 25.97q17.57 11.87 38.84 39.08t26.71 56.89q-23.74 30.67-62.82 54.17-39.09 23.49-80.14 31.41-27.71-2.47-70-15.58-42.3-13.11-63.57-13.11t-42.54 13.35q8.9-25.22 29.18-63.32h3.96q31.66 0 59.61 9.9 27.95 9.89 50.95 19.79 23.01 9.89 37.1 9.89 14.1 0 20.53-1.98 0-32.65-20.28-53.92-10.88-11.38-18.55-17.56-7.67-6.19-23.5-17.07l-8.41-5.94q-33.64-23.25-55.4-47.24-21.77-23.99-31.66-59.11 15.83-35.13 31.16-60.85 47-11.38 97.46-11.38h21.76q42.55 0 97.46 11.87-7.92 32.65-19.29 58.87-41.56 2.97-64.31 2.97 4.45-11.38 8.41-32.65"/><rect width="330.041" height="559.35" x="222.121" y="100.01" fill="none" rx="0" ry="0" transform="translate(400.6 400.67)"/></g><path fill="transparent" stroke="transparent" stroke-width="1.789" d="M454.83 250h590.34v1000H454.83z"/></g></svg>